<svg t="1695529954006" class="icon" viewBox="0 0 1024 1024" version="1.1" xmlns="http://www.w3.org/2000/svg" p-id="1232" width="200" height="200"><path d="M610 818h101.862C740.657 818 764 794.65 764 765.845V459h119L512 128 141 459h119v306.845C260 794.649 283.343 818 312.138 818H415V619c0-16.569 13.431-30 30-30h135c16.569 0 30 13.431 30 30v199zM475 649v169c0 33.137-26.863 60-60 60H312.138C250.2 878 200 827.782 200 765.845V519h-59c-55.117 0-81.072-68.078-39.944-104.771l371-331c22.759-20.305 57.13-20.305 79.888 0l371 331C964.072 450.922 938.117 519 883 519h-59v246.845C824 827.782 773.799 878 711.862 878H610c-33.137 0-60-26.863-60-60V649h-75z" fill="#000000" p-id="1233"></path></svg>